<svg xmlns="http://www.w3.org/2000/svg" xmlns:xlink="http://www.w3.org/1999/xlink" version="1.1" data-diagram-type="DESCRIPTION" style="width:3860px;height:1721px;background:#FFFFFF;" width="3860.625px" height="1721.25px" viewBox="0 0 3860 1721" zoomAndPan="magnify" preserveAspectRatio="none" contentStyleType="text/css"><?plantuml 1.2026.9beta4?><defs/><g font-family="sans-serif" lengthAdjust="spacing"><g class="title" data-source-line="8"><text x="1545.541" y="43.802" fill="#000" font-size="26.25" textLength="756.418" font-weight="700" font-family="Arial">UML компонентов — зависимости программных модулей</text></g><!--cluster Узел КПП--><g class="cluster" data-qualified-name=".... ..." id="ent0001" data-source-line="9"><path d="M15.938,80.81 L156.899,80.81 A7.031,7.031 0 0 1 161.587,85.497 L174.712,126.557 L2699.063,126.557 A4.688,4.688 0 0 1 2703.75,131.245 L2703.75,1116.747 A4.688,4.688 0 0 1 2699.063,1121.435 L15.938,1121.435 A4.688,4.688 0 0 1 11.25,1116.747 L11.25,85.497 A4.688,4.688 0 0 1 15.938,80.81" style="stroke:#000;stroke-width:2.813;" fill="none"/><line x1="11.25" y1="126.557" x2="174.712" y2="126.557" style="stroke:#000;stroke-width:2.813;"/><text x="18.75" y="113.19" fill="#000" font-size="30" textLength="139.087" font-weight="700" font-family="Arial">Узел КПП</text></g><!--cluster Центральная платформа--><g class="cluster" data-qualified-name="........... ........." id="ent0025" data-source-line="34"><path d="M2753.438,918.935 L3130.21,918.935 A7.031,7.031 0 0 1 3134.897,923.622 L3148.022,964.682 L3827.813,964.682 A4.688,4.688 0 0 1 3832.5,969.37 L3832.5,1688.622 A4.688,4.688 0 0 1 3827.813,1693.31 L2753.438,1693.31 A4.688,4.688 0 0 1 2748.75,1688.622 L2748.75,923.622 A4.688,4.688 0 0 1 2753.438,918.935" style="stroke:#000;stroke-width:2.813;" fill="none"/><line x1="2748.75" y1="964.682" x2="3148.022" y2="964.682" style="stroke:#000;stroke-width:2.813;"/><text x="2756.25" y="951.315" fill="#000" font-size="30" textLength="374.897" font-weight="700" font-family="Arial">Центральная платформа</text></g><!--entity cap--><g class="entity" data-qualified-name=".... ....cap" id="ent0002" data-source-line="10"><rect x="495" y="150.185" width="281.763" height="90.747" fill="#F1F1F1" style="stroke:#181818;stroke-width:0.938;" rx="4.688" ry="4.688"/><rect x="739.263" y="159.56" width="28.125" height="18.75" fill="#F1F1F1" style="stroke:#181818;stroke-width:0.938;"/><rect x="735.513" y="163.31" width="7.5" height="3.75" fill="#F1F1F1" style="stroke:#181818;stroke-width:0.938;"/><rect x="735.513" y="170.81" width="7.5" height="3.75" fill="#F1F1F1" style="stroke:#181818;stroke-width:0.938;"/><text x="523.125" y="216.315" fill="#000" font-size="30" textLength="206.763" font-family="Arial">CaptureService</text></g><!--entity pad--><g class="entity" data-qualified-name=".... ....pad" id="ent0003" data-source-line="11"><rect x="494.063" y="420.185" width="283.433" height="90.747" fill="#F1F1F1" style="stroke:#181818;stroke-width:0.938;" rx="4.688" ry="4.688"/><rect x="739.995" y="429.56" width="28.125" height="18.75" fill="#F1F1F1" style="stroke:#181818;stroke-width:0.938;"/><rect x="736.245" y="433.31" width="7.5" height="3.75" fill="#F1F1F1" style="stroke:#181818;stroke-width:0.938;"/><rect x="736.245" y="440.81" width="7.5" height="3.75" fill="#F1F1F1" style="stroke:#181818;stroke-width:0.938;"/><text x="522.188" y="486.315" fill="#000" font-size="30" textLength="208.433" font-family="Arial">QualityAndPAD</text></g><!--entity idp--><g class="entity" data-qualified-name=".... ....idp" id="ent0004" data-source-line="12"><rect x="1283.438" y="690.185" width="355.151" height="90.747" fill="#F1F1F1" style="stroke:#181818;stroke-width:0.938;" rx="4.688" ry="4.688"/><rect x="1601.089" y="699.56" width="28.125" height="18.75" fill="#F1F1F1" style="stroke:#181818;stroke-width:0.938;"/><rect x="1597.339" y="703.31" width="7.5" height="3.75" fill="#F1F1F1" style="stroke:#181818;stroke-width:0.938;"/><rect x="1597.339" y="710.81" width="7.5" height="3.75" fill="#F1F1F1" style="stroke:#181818;stroke-width:0.938;"/><text x="1311.563" y="756.315" fill="#000" font-size="30" textLength="280.151" font-family="Arial">LocalIdentityProvider</text></g><!--entity dec--><g class="entity" data-qualified-name=".... ....dec" id="ent0005" data-source-line="13"><rect x="490.313" y="690.185" width="290.083" height="90.747" fill="#F1F1F1" style="stroke:#181818;stroke-width:0.938;" rx="4.688" ry="4.688"/><rect x="742.896" y="699.56" width="28.125" height="18.75" fill="#F1F1F1" style="stroke:#181818;stroke-width:0.938;"/><rect x="739.146" y="703.31" width="7.5" height="3.75" fill="#F1F1F1" style="stroke:#181818;stroke-width:0.938;"/><rect x="739.146" y="710.81" width="7.5" height="3.75" fill="#F1F1F1" style="stroke:#181818;stroke-width:0.938;"/><text x="518.438" y="756.315" fill="#000" font-size="30" textLength="215.083" font-family="Arial">DecisionService</text></g><!--entity pol--><g class="entity" data-qualified-name=".... ....pol" id="ent0006" data-source-line="14"><rect x="1099.688" y="988.31" width="226.729" height="90.747" fill="#F1F1F1" style="stroke:#181818;stroke-width:0.938;" rx="4.688" ry="4.688"/><rect x="1288.916" y="997.685" width="28.125" height="18.75" fill="#F1F1F1" style="stroke:#181818;stroke-width:0.938;"/><rect x="1285.166" y="1001.435" width="7.5" height="3.75" fill="#F1F1F1" style="stroke:#181818;stroke-width:0.938;"/><rect x="1285.166" y="1008.935" width="7.5" height="3.75" fill="#F1F1F1" style="stroke:#181818;stroke-width:0.938;"/><text x="1127.813" y="1054.44" fill="#000" font-size="30" textLength="151.729" font-family="Arial">PolicyStore</text></g><!--entity gal--><g class="entity" data-qualified-name=".... ....gal" id="ent0007" data-source-line="15"><rect x="1907.813" y="988.31" width="241.729" height="90.747" fill="#F1F1F1" style="stroke:#181818;stroke-width:0.938;" rx="4.688" ry="4.688"/><rect x="2112.041" y="997.685" width="28.125" height="18.75" fill="#F1F1F1" style="stroke:#181818;stroke-width:0.938;"/><rect x="2108.291" y="1001.435" width="7.5" height="3.75" fill="#F1F1F1" style="stroke:#181818;stroke-width:0.938;"/><rect x="2108.291" y="1008.935" width="7.5" height="3.75" fill="#F1F1F1" style="stroke:#181818;stroke-width:0.938;"/><text x="1935.938" y="1054.44" fill="#000" font-size="30" textLength="166.729" font-family="Arial">GalleryStore</text></g><!--entity aud--><g class="entity" data-qualified-name=".... ....aud" id="ent0008" data-source-line="16"><rect x="1513.125" y="988.31" width="240.103" height="90.747" fill="#F1F1F1" style="stroke:#181818;stroke-width:0.938;" rx="4.688" ry="4.688"/><rect x="1715.728" y="997.685" width="28.125" height="18.75" fill="#F1F1F1" style="stroke:#181818;stroke-width:0.938;"/><rect x="1711.978" y="1001.435" width="7.5" height="3.75" fill="#F1F1F1" style="stroke:#181818;stroke-width:0.938;"/><rect x="1711.978" y="1008.935" width="7.5" height="3.75" fill="#F1F1F1" style="stroke:#181818;stroke-width:0.938;"/><text x="1541.25" y="1054.44" fill="#000" font-size="30" textLength="165.103" font-family="Arial">AuditOutbox</text></g><!--entity gate--><g class="entity" data-qualified-name=".... ....gate" id="ent0009" data-source-line="17"><rect x="42.188" y="690.185" width="245.112" height="90.747" fill="#F1F1F1" style="stroke:#181818;stroke-width:0.938;" rx="4.688" ry="4.688"/><rect x="249.8" y="699.56" width="28.125" height="18.75" fill="#F1F1F1" style="stroke:#181818;stroke-width:0.938;"/><rect x="246.05" y="703.31" width="7.5" height="3.75" fill="#F1F1F1" style="stroke:#181818;stroke-width:0.938;"/><rect x="246.05" y="710.81" width="7.5" height="3.75" fill="#F1F1F1" style="stroke:#181818;stroke-width:0.938;"/><text x="70.313" y="756.315" fill="#000" font-size="30" textLength="170.112" font-family="Arial">GateAdapter</text></g><!--entity sync--><g class="entity" data-qualified-name=".... ....sync" id="ent0010" data-source-line="18"><rect x="2342.813" y="690.185" width="220.093" height="90.747" fill="#F1F1F1" style="stroke:#181818;stroke-width:0.938;" rx="4.688" ry="4.688"/><rect x="2525.405" y="699.56" width="28.125" height="18.75" fill="#F1F1F1" style="stroke:#181818;stroke-width:0.938;"/><rect x="2521.655" y="703.31" width="7.5" height="3.75" fill="#F1F1F1" style="stroke:#181818;stroke-width:0.938;"/><rect x="2521.655" y="710.81" width="7.5" height="3.75" fill="#F1F1F1" style="stroke:#181818;stroke-width:0.938;"/><text x="2370.938" y="756.315" fill="#000" font-size="30" textLength="145.093" font-family="Arial">SyncAgent</text></g><!--entity ii--><g class="entity" data-qualified-name=".... ....ii" id="ent0011" data-source-line="19"><ellipse cx="725.625" cy="1033.31" rx="15" ry="15" fill="#F1F1F1" style="stroke:#181818;stroke-width:0.938;"/><text x="617.241" y="1093.815" fill="#000" font-size="30" textLength="216.768" font-family="Arial">IIdentityProvider</text></g><!--entity ig--><g class="entity" data-qualified-name=".... ....ig" id="ent0012" data-source-line="20"><ellipse cx="159.375" cy="1033.31" rx="15" ry="15" fill="#F1F1F1" style="stroke:#181818;stroke-width:0.938;"/><text x="74.333" y="1093.815" fill="#000" font-size="30" textLength="170.083" font-family="Arial">IGateControl</text></g><!--entity enr--><g class="entity" data-qualified-name="........... ..........enr" id="ent0026" data-source-line="35"><rect x="2778.75" y="1287.372" width="318.428" height="90.747" fill="#F1F1F1" style="stroke:#181818;stroke-width:0.938;" rx="4.688" ry="4.688"/><rect x="3059.678" y="1296.747" width="28.125" height="18.75" fill="#F1F1F1" style="stroke:#181818;stroke-width:0.938;"/><rect x="3055.928" y="1300.497" width="7.5" height="3.75" fill="#F1F1F1" style="stroke:#181818;stroke-width:0.938;"/><rect x="3055.928" y="1307.997" width="7.5" height="3.75" fill="#F1F1F1" style="stroke:#181818;stroke-width:0.938;"/><text x="2806.875" y="1353.503" fill="#000" font-size="30" textLength="243.428" font-family="Arial">EnrollmentService</text></g><!--entity ps--><g class="entity" data-qualified-name="........... ..........ps" id="ent0027" data-source-line="36"><rect x="3219.375" y="1287.372" width="255.059" height="90.747" fill="#F1F1F1" style="stroke:#181818;stroke-width:0.938;" rx="4.688" ry="4.688"/><rect x="3436.934" y="1296.747" width="28.125" height="18.75" fill="#F1F1F1" style="stroke:#181818;stroke-width:0.938;"/><rect x="3433.184" y="1300.497" width="7.5" height="3.75" fill="#F1F1F1" style="stroke:#181818;stroke-width:0.938;"/><rect x="3433.184" y="1307.997" width="7.5" height="3.75" fill="#F1F1F1" style="stroke:#181818;stroke-width:0.938;"/><text x="3247.5" y="1353.503" fill="#000" font-size="30" textLength="180.059" font-family="Arial">PolicyService</text></g><!--entity mr--><g class="entity" data-qualified-name="........... ..........mr" id="ent0028" data-source-line="37"><rect x="3352.5" y="1573.31" width="266.733" height="90.747" fill="#F1F1F1" style="stroke:#181818;stroke-width:0.938;" rx="4.688" ry="4.688"/><rect x="3581.733" y="1582.685" width="28.125" height="18.75" fill="#F1F1F1" style="stroke:#181818;stroke-width:0.938;"/><rect x="3577.983" y="1586.435" width="7.5" height="3.75" fill="#F1F1F1" style="stroke:#181818;stroke-width:0.938;"/><rect x="3577.983" y="1593.935" width="7.5" height="3.75" fill="#F1F1F1" style="stroke:#181818;stroke-width:0.938;"/><text x="3380.625" y="1639.44" fill="#000" font-size="30" textLength="191.733" font-family="Arial">ModelRegistry</text></g><!--entity sa--><g class="entity" data-qualified-name="........... ..........sa" id="ent0029" data-source-line="38"><rect x="3171.563" y="988.31" width="190.049" height="90.747" fill="#F1F1F1" style="stroke:#181818;stroke-width:0.938;" rx="4.688" ry="4.688"/><rect x="3324.111" y="997.685" width="28.125" height="18.75" fill="#F1F1F1" style="stroke:#181818;stroke-width:0.938;"/><rect x="3320.361" y="1001.435" width="7.5" height="3.75" fill="#F1F1F1" style="stroke:#181818;stroke-width:0.938;"/><rect x="3320.361" y="1008.935" width="7.5" height="3.75" fill="#F1F1F1" style="stroke:#181818;stroke-width:0.938;"/><text x="3199.688" y="1054.44" fill="#000" font-size="30" textLength="115.049" font-family="Arial">SyncAPI</text></g><!--entity aa--><g class="entity" data-qualified-name="........... ..........aa" id="ent0030" data-source-line="39"><rect x="3483.75" y="988.31" width="191.733" height="90.747" fill="#F1F1F1" style="stroke:#181818;stroke-width:0.938;" rx="4.688" ry="4.688"/><rect x="3637.983" y="997.685" width="28.125" height="18.75" fill="#F1F1F1" style="stroke:#181818;stroke-width:0.938;"/><rect x="3634.233" y="1001.435" width="7.5" height="3.75" fill="#F1F1F1" style="stroke:#181818;stroke-width:0.938;"/><rect x="3634.233" y="1008.935" width="7.5" height="3.75" fill="#F1F1F1" style="stroke:#181818;stroke-width:0.938;"/><text x="3511.875" y="1054.44" fill="#000" font-size="30" textLength="116.733" font-family="Arial">AuditAPI</text></g><!--entity ui--><g class="entity" data-qualified-name="........... ..........ui" id="ent0031" data-source-line="40"><rect x="2827.5" y="988.31" width="221.719" height="90.747" fill="#F1F1F1" style="stroke:#181818;stroke-width:0.938;" rx="4.688" ry="4.688"/><rect x="3011.719" y="997.685" width="28.125" height="18.75" fill="#F1F1F1" style="stroke:#181818;stroke-width:0.938;"/><rect x="3007.969" y="1001.435" width="7.5" height="3.75" fill="#F1F1F1" style="stroke:#181818;stroke-width:0.938;"/><rect x="3007.969" y="1008.935" width="7.5" height="3.75" fill="#F1F1F1" style="stroke:#181818;stroke-width:0.938;"/><text x="2855.625" y="1054.44" fill="#000" font-size="30" textLength="146.719" font-family="Arial">AdminWeb</text></g><g class="entity" data-qualified-name="GMN40" id="ent0041" data-source-line="51"><path d="M394.688,1271.435 L394.688,1393.676 A0,0 0 0 0 394.688,1393.676 L1056.987,1393.676 A0,0 0 0 0 1056.987,1393.676 L1056.987,1290.185 L1038.237,1271.435 L733.125,1271.435 L725.625,1050.241 L718.125,1271.435 L394.688,1271.435 A0,0 0 0 0 394.688,1271.435" style="stroke:#181818;stroke-width:0.938;" fill="#FEFFDD"/><path d="M1038.237,1271.435 L1038.237,1290.185 L1056.987,1290.185 L1038.237,1271.435" style="stroke:#181818;stroke-width:0.938;" fill="#FEFFDD"/><text x="405.938" y="1309.44" fill="#000" font-size="30" textLength="599.077" font-family="Arial">Адаптер разрешённого внешнего решения</text><text x="405.938" y="1343.937" fill="#000" font-size="30" textLength="515.068" font-family="Arial">может заменить LocalIdentityProvider</text><text x="405.938" y="1378.434" fill="#000" font-size="30" textLength="622.925" font-family="Arial">после пересмотра контрактов и требований.</text></g><!--link cap to pad--><g class="link" data-entity-1="ent0002" data-entity-2="ent0003" id="lnk13" data-source-line="21" data-link-type="dependency"><path d="M635.625,240.429 C635.625,289.947 635.625,361.085 635.625,410.585" style="stroke:#181818;stroke-width:1.875;" fill="none" id="cap-to-pad"/><polygon points="635.625,419.96,643.125,403.085,635.625,410.585,628.125,403.085,635.625,419.96" fill="#181818" style="stroke:#181818;stroke-width:1.875;stroke-linejoin:miter;stroke-miterlimit:10;"/><text x="637.5" y="341.94" fill="#000" font-size="30" textLength="85.562" font-family="Arial">кадры</text></g><!--link pad to dec--><g class="link" data-entity-1="ent0003" data-entity-2="ent0005" id="lnk14" data-source-line="22" data-link-type="dependency"><path d="M635.625,510.429 C635.625,559.947 635.625,631.085 635.625,680.585" style="stroke:#181818;stroke-width:1.875;" fill="none" id="pad-to-dec"/><polygon points="635.625,689.96,643.125,673.085,635.625,680.585,628.125,673.085,635.625,689.96" fill="#181818" style="stroke:#181818;stroke-width:1.875;stroke-linejoin:miter;stroke-miterlimit:10;"/><text x="637.5" y="611.94" fill="#000" font-size="30" textLength="218.599" font-family="Arial">качество и PAD</text></g><!--link dec to ii--><g class="link" data-entity-1="ent0005" data-entity-2="ent0011" id="lnk15" data-source-line="23" data-link-type="dependency"><path d="M517.762,780.241 C465.244,806.697 420.731,844.066 448.125,888.935 C507.675,986.472 648.343,1018.441 699.193,1027.216" style="stroke:#181818;stroke-width:1.875;stroke-dasharray:13.125,13.125;" fill="none" id="dec-to-ii"/><polygon points="708.431,1028.81,693.077,1018.55,699.193,1027.216,690.527,1033.331,708.431,1028.81" fill="#181818" style="stroke:#181818;stroke-width:1.875;stroke-linejoin:miter;stroke-miterlimit:10;"/><text x="450" y="881.94" fill="#000" font-size="30" textLength="115.034" font-family="Arial">identify()</text></g><!--link idp to ii--><g class="link" data-entity-1="ent0004" data-entity-2="ent0011" id="lnk16" data-source-line="24" data-link-type="association"><path d="M1283.213,758.116 C1149.45,777.035 979.894,808.46 924.375,851.435 C909.637,862.835 917.381,874.479 905.625,888.935 C856.35,949.554 777.019,1000.891 742.537,1021.61" style="stroke:#181818;stroke-width:1.875;" fill="none" id="idp-ii"/></g><!--link idp to gal--><g class="link" data-entity-1="ent0004" data-entity-2="ent0007" id="lnk17" data-source-line="25" data-link-type="dependency"><path d="M1560.225,780.335 C1631.719,812.322 1729.744,858.129 1813.125,903.935 C1862.1,930.841 1908.204,958.023 1949.998,983.241" style="stroke:#181818;stroke-width:1.875;" fill="none" id="idp-to-gal"/><polygon points="1958.025,988.085,1947.451,972.945,1949.998,983.241,1939.702,985.788,1958.025,988.085" fill="#181818" style="stroke:#181818;stroke-width:1.875;stroke-linejoin:miter;stroke-miterlimit:10;"/><text x="1788.75" y="881.94" fill="#000" font-size="30" textLength="185.054" font-family="Arial">searchExact()</text></g><!--link dec to pol--><g class="link" data-entity-1="ent0005" data-entity-2="ent0006" id="lnk18" data-source-line="26" data-link-type="dependency"><path d="M644.55,780.204 C654.338,815.697 673.838,864.072 710.625,888.935 C746.981,913.497 864.844,893.697 907.5,903.935 C985.763,922.722 1061.399,955.013 1121.512,984.113" style="stroke:#181818;stroke-width:1.875;" fill="none" id="dec-to-pol"/><polygon points="1129.95,988.197,1118.029,974.094,1121.512,984.113,1111.493,987.595,1129.95,988.197" fill="#181818" style="stroke:#181818;stroke-width:1.875;stroke-linejoin:miter;stroke-miterlimit:10;"/><text x="712.5" y="881.94" fill="#000" font-size="30" textLength="183.384" font-family="Arial">checkRights()</text></g><!--link dec to aud--><g class="link" data-entity-1="ent0005" data-entity-2="ent0008" id="lnk19" data-source-line="27" data-link-type="dependency"><path d="M741.675,780.222 C847.481,822.954 998.4,882.86 1027.5,888.935 C1105.875,905.285 1310.119,883.329 1387.5,903.935 C1453.2,921.429 1513.357,953.585 1561.132,983.285" style="stroke:#181818;stroke-width:1.875;" fill="none" id="dec-to-aud"/><polygon points="1569.094,988.235,1558.722,972.956,1561.132,983.285,1550.803,985.695,1569.094,988.235" fill="#181818" style="stroke:#181818;stroke-width:1.875;stroke-linejoin:miter;stroke-miterlimit:10;"/><text x="1029.375" y="881.94" fill="#000" font-size="30" textLength="281.865" font-family="Arial">appendBeforeOpen()</text></g><!--link dec to ig--><g class="link" data-entity-1="ent0005" data-entity-2="ent0012" id="lnk20" data-source-line="28" data-link-type="dependency"><path d="M490.219,751.797 C411.544,766.235 316.913,794.829 249.375,851.435 C195.544,896.547 172.911,972.661 164.755,1007.198" style="stroke:#181818;stroke-width:1.875;stroke-dasharray:13.125,13.125;" fill="none" id="dec-to-ig"/><polygon points="162.6,1016.322,173.778,1001.623,164.755,1007.198,159.179,998.175,162.6,1016.322" fill="#181818" style="stroke:#181818;stroke-width:1.875;stroke-linejoin:miter;stroke-miterlimit:10;"/><text x="251.25" y="881.94" fill="#000" font-size="30" textLength="158.423" font-family="Arial">openOnce()</text></g><!--link gate to ig--><g class="link" data-entity-1="ent0009" data-entity-2="ent0012" id="lnk21" data-source-line="29" data-link-type="association"><path d="M105.919,780.71 C84.9,799.797 63.694,824.116 52.5,851.435 C24.956,918.71 105.675,990.729 142.313,1019.022" style="stroke:#181818;stroke-width:1.875;" fill="none" id="gate-ig"/></g><!--link sync to gal--><g class="link" data-entity-1="ent0010" data-entity-2="ent0007" id="lnk22" data-source-line="30" data-link-type="dependency"><path d="M2423.044,780.635 C2399.081,813.579 2362.856,858.222 2323.125,888.935 C2269.669,930.26 2210.923,960.275 2154.13,984.5" style="stroke:#181818;stroke-width:1.875;" fill="none" id="sync-to-gal"/><polygon points="2145.506,988.179,2163.971,988.457,2154.13,984.5,2158.086,974.659,2145.506,988.179" fill="#181818" style="stroke:#181818;stroke-width:1.875;stroke-linejoin:miter;stroke-miterlimit:10;"/><text x="2366.25" y="881.94" fill="#000" font-size="30" textLength="218.467" font-family="Arial">applySnapshot()</text></g><!--link sync to pol--><g class="link" data-entity-1="ent0010" data-entity-2="ent0006" id="lnk23" data-source-line="31" data-link-type="dependency"><path d="M2342.288,742.085 C2115.881,753.635 1606.163,786.204 1445.625,851.435 C1369.481,882.372 1303.833,939.01 1260.633,981.667" style="stroke:#181818;stroke-width:1.875;" fill="none" id="sync-to-pol"/><polygon points="1253.962,988.254,1271.24,981.734,1260.633,981.667,1260.701,971.06,1253.962,988.254" fill="#181818" style="stroke:#181818;stroke-width:1.875;stroke-linejoin:miter;stroke-miterlimit:10;"/><text x="1447.5" y="881.94" fill="#000" font-size="30" textLength="241.787" font-family="Arial">applyRevocation()</text></g><!--link sync to aud--><g class="link" data-entity-1="ent0010" data-entity-2="ent0008" id="lnk24" data-source-line="32" data-link-type="dependency"><path d="M2342.55,775.816 C2221.106,818.379 2038.163,881.697 2004.375,888.935 C1935.619,903.654 1913.7,882.054 1846.875,903.935 C1789.388,922.76 1738.511,953.712 1697.261,982.812" style="stroke:#181818;stroke-width:1.875;" fill="none" id="sync-to-aud"/><polygon points="1689.6,988.216,1707.712,984.617,1697.261,982.812,1699.066,972.36,1689.6,988.216" fill="#181818" style="stroke:#181818;stroke-width:1.875;stroke-linejoin:miter;stroke-miterlimit:10;"/><text x="2115" y="881.94" fill="#000" font-size="30" textLength="160.063" font-family="Arial">flushBatch()</text></g><!--link ui to enr--><g class="link" data-entity-1="ent0031" data-entity-2="ent0026" id="lnk32" data-source-line="41" data-link-type="dependency"><path d="M2938.125,1078.76 C2938.125,1134.747 2938.125,1222.01 2938.125,1277.847" style="stroke:#181818;stroke-width:1.875;" fill="none" id="ui-to-enr"/><polygon points="2938.125,1287.222,2945.625,1270.347,2938.125,1277.847,2930.625,1270.347,2938.125,1287.222" fill="#181818" style="stroke:#181818;stroke-width:1.875;stroke-linejoin:miter;stroke-miterlimit:10;"/></g><!--link ui to ps--><g class="link" data-entity-1="ent0031" data-entity-2="ent0027" id="lnk33" data-source-line="42" data-link-type="dependency"><path d="M2962.781,1078.535 C2985.244,1114.891 3021.338,1166.191 3063.75,1200.185 C3109.556,1236.897 3158.734,1262.327 3210.165,1283.552" style="stroke:#181818;stroke-width:1.875;" fill="none" id="ui-to-ps"/><polygon points="3218.831,1287.129,3206.093,1273.758,3210.165,1283.552,3200.371,1287.624,3218.831,1287.129" fill="#181818" style="stroke:#181818;stroke-width:1.875;stroke-linejoin:miter;stroke-miterlimit:10;"/></g><!--link enr to mr--><g class="link" data-entity-1="ent0026" data-entity-2="ent0028" id="lnk34" data-source-line="43" data-link-type="dependency"><path d="M3021.881,1377.41 C3124.913,1430.529 3290.504,1515.878 3393.554,1568.978" style="stroke:#181818;stroke-width:1.875;" fill="none" id="enr-to-mr"/><polygon points="3401.888,1573.272,3390.322,1558.876,3393.554,1568.978,3383.451,1572.21,3401.888,1573.272" fill="#181818" style="stroke:#181818;stroke-width:1.875;stroke-linejoin:miter;stroke-miterlimit:10;"/><text x="3262.5" y="1495.065" fill="#000" font-size="30" textLength="212.109" font-family="Arial">совместимость</text></g><!--link sa to enr--><g class="link" data-entity-1="ent0029" data-entity-2="ent0026" id="lnk35" data-source-line="44" data-link-type="dependency"><path d="M3217.838,1078.76 C3155.625,1134.747 3055.232,1225.115 2993.169,1280.952" style="stroke:#181818;stroke-width:1.875;" fill="none" id="sa-to-enr"/><polygon points="2986.2,1287.222,3003.761,1281.511,2993.169,1280.952,2993.729,1270.36,2986.2,1287.222" fill="#181818" style="stroke:#181818;stroke-width:1.875;stroke-linejoin:miter;stroke-miterlimit:10;"/><text x="3123.75" y="1193.19" fill="#000" font-size="30" textLength="88.374" font-family="Arial">gallery</text></g><!--link sa to ps--><g class="link" data-entity-1="ent0029" data-entity-2="ent0027" id="lnk36" data-source-line="45" data-link-type="dependency"><path d="M3278.138,1078.76 C3293.438,1134.747 3317.35,1222.341 3332.593,1278.178" style="stroke:#181818;stroke-width:1.875;" fill="none" id="sa-to-ps"/><polygon points="3335.063,1287.222,3337.853,1268.968,3332.593,1278.178,3323.383,1272.918,3335.063,1287.222" fill="#181818" style="stroke:#181818;stroke-width:1.875;stroke-linejoin:miter;stroke-miterlimit:10;"/><text x="3309.375" y="1193.19" fill="#000" font-size="30" textLength="76.699" font-family="Arial">policy</text></g><!--link sa to mr--><g class="link" data-entity-1="ent0029" data-entity-2="ent0028" id="lnk37" data-source-line="46" data-link-type="dependency"><path d="M3326.738,1078.516 C3399.45,1132.122 3514.481,1222.329 3536.25,1271.435 C3581.138,1372.704 3539.732,1496.896 3510.332,1564.378" style="stroke:#181818;stroke-width:1.875;" fill="none" id="sa-to-mr"/><polygon points="3506.588,1572.972,3520.203,1560.498,3510.332,1564.378,3506.452,1554.506,3506.588,1572.972" fill="#181818" style="stroke:#181818;stroke-width:1.875;stroke-linejoin:miter;stroke-miterlimit:10;"/><text x="3556.875" y="1344.128" fill="#000" font-size="30" textLength="81.709" font-family="Arial">model</text></g><!--link sync to sa--><g class="link" data-entity-1="ent0010" data-entity-2="ent0029" id="lnk38" data-source-line="48" data-link-type="dependency"><path d="M2562.656,750.316 C2697.281,769.779 2929.313,813.972 3108.75,903.935 C3151.519,925.385 3186.438,953.622 3216.213,981.391" style="stroke:#181818;stroke-width:1.875;stroke-dasharray:13.125,13.125;" fill="none" id="sync-to-sa"/><polygon points="3223.069,987.785,3215.843,970.791,3216.213,981.391,3205.613,981.76,3223.069,987.785" fill="#181818" style="stroke:#181818;stroke-width:1.875;stroke-linejoin:miter;stroke-miterlimit:10;"/><text x="3078.75" y="881.94" fill="#000" font-size="30" textLength="203.35" font-family="Arial">HTTPS / mTLS</text></g><!--link sync to aa--><g class="link" data-entity-1="ent0010" data-entity-2="ent0030" id="lnk39" data-source-line="49" data-link-type="dependency"><path d="M2562.844,740.566 C2728.875,748.329 3051.413,773.06 3313.125,851.435 C3400.256,877.516 3477.383,937.114 3526.995,981.514" style="stroke:#181818;stroke-width:1.875;stroke-dasharray:13.125,13.125;" fill="none" id="sync-to-aa"/><polygon points="3533.981,987.766,3526.408,970.924,3526.995,981.514,3516.405,982.101,3533.981,987.766" fill="#181818" style="stroke:#181818;stroke-width:1.875;stroke-linejoin:miter;stroke-miterlimit:10;"/><text x="3393.75" y="881.94" fill="#000" font-size="30" textLength="301.846" font-family="Arial">идемпотентный batch</text></g><?plantuml-src RLJBRjGm5DtFLrXTmOBoa7Y81T801IeLEdIAM20MRkB9M4tiA74A0qAQyX18804IApOia5WFfKFVvHUSN-1BEFTwEWs8JHIVStnzVU_nBLUroMKXCn7dMfozTAPL7YEg9wlKtR36tP6P4kr2o_J_V5S_KUBiXGPPzcLi7scJY9vCIzLW8flbrYXiSeDKYIfBppLOOsDLgbnSEDy02sbM2RnulkMqmwPxjnU4t_M7Vj__mlV0Z_r1_Hn_6-Bty9FmMtxaD_nslUwt8Jcirq5k2_-h7aBp0zyHu7tiULk_4gJmc_KBluSmEwrSHgioKMB6VqMSiTyJ_hF_uh_CYASj8HvSaxch2jLLnPgEr4CXIn79d9YxbKor6xHDt6bVPoANCH4BDfBfV8mhW-uKTat7gc21ZdddTHNfKblJ31ghYAYEJNKqw3fR13YtAS4tPPggee4dal5s5MktMBaL-vXXMSL1xbGxHkQJSnEi2UyEJDHEa1YZ9LP0jO6i9oEKOFxVh6SuQ_sFYi9VWmqAcmP10W6g8awTka9549UfMoCKULY_1KKGKRZZXAfV-p5tQSCV2hGA5OIE-DdPApWGCisfz0OdJjBfCGMVP1A7Wr02o4ebYwW_zrX6ZfKKWzEmn4Pz5QqkwQJlohzOr0cip7DbugkgXwekudSguIGIA2pGHHCfPgYAd0LTbuhNI0EXqa7NoBpisv38L10oOS6IMeCt75h_joIaqqkhidzLkgWFzbd3cD-2tzd7U_Kx-7zKluUzuU0Hu9Tm_12k7aqiEsVGc3IZ9zSmc395ms0D8Yy9lus7c2wfH9Uk632U5LFBTEQ3OUJKSqUG352SQNDVhJ1KKPCgpHSBXquMV10GNcG5Rem7YpUCr8CPfe-tVaVLaKSXe4p20pY6yn9epfSv1ZbeHZT1_RYwr4cGbyMjvULELvmMsV92zvYIHE7SJLIOPmko2BC5iyBlY1NgHijOD7x5EcSpONlaGly1MqOOC93NGy6TsS9tNB-fFw8_1pHtoDeRDApgDpoo20WQEWFZwdsBPz5FGC_34DkVCAY0-EyOQN6IwpIxo01ZZhVETMD_X35vP9RToP342sDaxBzpmKTqYD-PRS7-Wcxt1m00?></g></svg>