<svg xmlns="http://www.w3.org/2000/svg" xmlns:xlink="http://www.w3.org/1999/xlink" version="1.1" data-diagram-type="SEQUENCE" style="width:1771px;height:2326px;background:#FFFFFF;" width="1771.875px" height="2326.875px" viewBox="0 0 1771 2326" zoomAndPan="magnify" preserveAspectRatio="none" contentStyleType="text/css"><?plantuml 1.2026.9beta4?><defs/><g font-family="sans-serif" lengthAdjust="spacing"><g class="title" data-source-line="8"><text x="544.266" y="53.177" fill="#000" font-size="26.25" textLength="680.244" font-weight="700" font-family="Arial">UML последовательности — одна попытка прохода</text></g><rect x="274.783" y="559.29" width="1330.728" height="1315.796" fill="none" style="stroke:#000;stroke-width:2.813;"/><rect x="393.797" y="1191.876" width="1164.839" height="656.96" fill="none" style="stroke:#000;stroke-width:2.813;"/><rect x="429.422" y="1401.487" width="1017.676" height="202.112" fill="none" style="stroke:#000;stroke-width:2.813;"/><g><title>......</title><rect x="84.284" y="252.178" width="15" height="2055.822" fill="#000" fill-opacity="0"/><line x1="90.847" y1="252.178" x2="90.847" y2="2308" style="stroke:#181818;stroke-width:0.938;stroke-dasharray:9.375,9.375;"/></g><g><title>Edge runtime</title><rect x="452.859" y="252.178" width="15" height="2055.822" fill="#000" fill-opacity="0"/><line x1="459.422" y1="252.178" x2="459.422" y2="2308" style="stroke:#181818;stroke-width:0.938;stroke-dasharray:9.375,9.375;"/></g><g><title>.........</title><rect x="937.186" y="252.178" width="15" height="2055.822" fill="#000" fill-opacity="0"/><line x1="943.748" y1="252.178" x2="943.748" y2="2308" style="stroke:#181818;stroke-width:0.938;stroke-dasharray:9.375,9.375;"/></g><g><title>..........</title><rect x="1154.881" y="252.178" width="15" height="2055.822" fill="#000" fill-opacity="0"/><line x1="1161.443" y1="252.178" x2="1161.443" y2="2308" style="stroke:#181818;stroke-width:0.938;stroke-dasharray:9.375,9.375;"/></g><g><title>......</title><rect x="1522.073" y="252.178" width="15" height="2055.822" fill="#000" fill-opacity="0"/><line x1="1528.636" y1="252.178" x2="1528.636" y2="2308" style="stroke:#181818;stroke-width:0.938;stroke-dasharray:9.375,9.375;"/></g><g><title>.....</title><rect x="1683.912" y="252.178" width="15" height="2055.822" fill="#000" fill-opacity="0"/><line x1="1690.475" y1="252.178" x2="1690.475" y2="2308" style="stroke:#181818;stroke-width:0.938;stroke-dasharray:9.375,9.375;"/></g><rect x="18.75" y="185.244" width="144.194" height="65.059" fill="#E2E2F0" style="stroke:#181818;stroke-width:0.938;" rx="4.688" ry="4.688"/><text x="31.875" y="230.578" fill="#000" font-size="33.75" textLength="117.944" font-family="Arial">Камера</text><rect x="345.928" y="185.244" width="226.987" height="65.059" fill="#E2E2F0" style="stroke:#181818;stroke-width:0.938;" rx="4.688" ry="4.688"/><text x="359.053" y="230.578" fill="#000" font-size="33.75" textLength="200.737" font-family="Arial">Edge runtime</text><text x="851.425" y="206.769" fill="#000" font-size="33.75" textLength="173.397" font-family="Arial">Локальные</text><text x="878.74" y="245.578" fill="#000" font-size="33.75" textLength="118.768" font-family="Arial">данные</text><path d="M909.998,107.06 C909.998,88.31 943.748,88.31 943.748,88.31 C943.748,88.31 977.498,88.31 977.498,107.06 L977.498,155.81 C977.498,174.56 943.748,174.56 943.748,174.56 C943.748,174.56 909.998,174.56 909.998,155.81 L909.998,107.06" style="stroke:#181818;stroke-width:0.938;" fill="#E2E2F0"/><path d="M909.998,107.06 C909.998,125.81 943.748,125.81 943.748,125.81 C943.748,125.81 977.498,125.81 977.498,107.06" style="stroke:#181818;stroke-width:0.938;" fill="none"/><rect x="1054.822" y="146.435" width="213.243" height="103.868" fill="#E2E2F0" style="stroke:#181818;stroke-width:0.938;" rx="4.688" ry="4.688"/><text x="1067.947" y="191.769" fill="#000" font-size="33.75" textLength="186.993" font-family="Arial">Контроллер</text><text x="1117.278" y="230.578" fill="#000" font-size="33.75" textLength="88.33" font-family="Arial">СКУД</text><text x="1463.973" y="245.578" fill="#000" font-size="33.75" textLength="118.076" font-family="Arial">Охрана</text><ellipse cx="1528.636" cy="116.807" rx="15" ry="15" fill="#E2E2F0" style="stroke:#181818;stroke-width:0.938;"/><path d="M1528.636,131.807 L1528.636,182.432 M1504.261,146.807 L1553.011,146.807 M1528.636,182.432 L1504.261,210.557 M1528.636,182.432 L1553.011,210.557" style="stroke:#181818;stroke-width:0.938;" fill="none"/><rect x="1629.048" y="185.244" width="122.853" height="65.059" fill="#E2E2F0" style="stroke:#181818;stroke-width:0.938;" rx="4.688" ry="4.688"/><text x="1642.173" y="230.578" fill="#000" font-size="33.75" textLength="96.603" font-family="Arial">Центр</text><polygon points="436.922,309.738,455.672,317.238,436.922,324.738,444.422,317.238" fill="#181818" style="stroke:#181818;stroke-width:1.875;stroke-linejoin:miter;stroke-miterlimit:10;"/><line x1="90.847" y1="317.238" x2="448.172" y2="317.238" style="stroke:#181818;stroke-width:1.875;"/><text x="113.347" y="306.888" fill="#000" font-size="33.75" textLength="73.136" font-family="Arial">RGB</text><text x="186.483" y="306.888" fill="#000" font-size="33.75" font-family="Arial"> </text><text x="195.86" y="306.888" fill="#000" font-size="33.75" font-family="Arial">+</text><text x="215.569" y="306.888" fill="#000" font-size="33.75" font-family="Arial"> </text><text x="224.946" y="306.888" fill="#000" font-size="33.75" textLength="43.127" font-family="Arial">IR,</text><text x="268.073" y="306.888" fill="#000" font-size="33.75" font-family="Arial"> </text><text x="277.45" y="306.888" fill="#000" font-size="33.75" textLength="159.472" font-family="Arial">session_id</text><line x1="459.422" y1="382.297" x2="538.172" y2="382.297" style="stroke:#181818;stroke-width:1.875;"/><line x1="538.172" y1="382.297" x2="538.172" y2="406.672" style="stroke:#181818;stroke-width:1.875;"/><line x1="461.297" y1="406.672" x2="538.172" y2="406.672" style="stroke:#181818;stroke-width:1.875;"/><polygon points="480.047,399.172,461.297,406.672,480.047,414.172,472.547,406.672" fill="#181818" style="stroke:#181818;stroke-width:1.875;stroke-linejoin:miter;stroke-miterlimit:10;"/><text x="472.547" y="371.947" fill="#000" font-size="33.75" textLength="153.193" font-family="Arial">Качество,</text><text x="625.74" y="371.947" fill="#000" font-size="33.75" font-family="Arial"> </text><text x="635.117" y="371.947" fill="#000" font-size="33.75" textLength="78.772" font-family="Arial">PAD,</text><text x="713.889" y="371.947" fill="#000" font-size="33.75" font-family="Arial"> </text><text x="723.266" y="371.947" fill="#000" font-size="33.75" textLength="167.003" font-family="Arial">embedding</text><polygon points="921.248,464.231,939.998,471.731,921.248,479.231,928.748,471.731" fill="#181818" style="stroke:#181818;stroke-width:1.875;stroke-linejoin:miter;stroke-miterlimit:10;"/><line x1="459.422" y1="471.731" x2="932.498" y2="471.731" style="stroke:#181818;stroke-width:1.875;"/><text x="481.922" y="461.381" fill="#000" font-size="33.75" textLength="52.52" font-family="Arial">1:N</text><text x="534.442" y="461.381" fill="#000" font-size="33.75" font-family="Arial"> </text><text x="543.819" y="461.381" fill="#000" font-size="33.75" font-family="Arial">и</text><text x="562.671" y="461.381" fill="#000" font-size="33.75" font-family="Arial"> </text><text x="572.048" y="461.381" fill="#000" font-size="33.75" textLength="144.822" font-family="Arial">проверка</text><text x="716.87" y="461.381" fill="#000" font-size="33.75" font-family="Arial"> </text><text x="726.247" y="461.381" fill="#000" font-size="33.75" textLength="111.879" font-family="Arial">свежих</text><text x="838.126" y="461.381" fill="#000" font-size="33.75" font-family="Arial"> </text><text x="847.503" y="461.381" fill="#000" font-size="33.75" textLength="73.746" font-family="Arial">прав</text><polygon points="480.047,529.29,461.297,536.79,480.047,544.29,472.547,536.79" fill="#181818" style="stroke:#181818;stroke-width:1.875;stroke-linejoin:miter;stroke-miterlimit:10;"/><line x1="468.797" y1="536.79" x2="941.873" y2="536.79" style="stroke:#181818;stroke-width:1.875;stroke-dasharray:3.75,3.75;"/><text x="494.652" y="526.44" fill="#000" font-size="33.75" textLength="183.17" font-family="Arial">Кандидаты,</text><text x="677.822" y="526.44" fill="#000" font-size="33.75" font-family="Arial"> </text><text x="687.198" y="526.44" fill="#000" font-size="33.75" textLength="101.893" font-family="Arial">права,</text><text x="789.091" y="526.44" fill="#000" font-size="33.75" font-family="Arial"> </text><text x="798.468" y="526.44" fill="#000" font-size="33.75" textLength="110.05" font-family="Arial">версии</text><path d="M274.783,559.29 L398.544,559.29 L398.544,583.099 L379.794,601.849 L274.783,601.849 L274.783,559.29" style="stroke:#000;stroke-width:2.813;" fill="#EEE"/><rect x="274.783" y="559.29" width="1330.728" height="1315.796" fill="none" style="stroke:#000;stroke-width:2.813;"/><text x="302.908" y="593.374" fill="#000" font-size="33.75" textLength="39.386" font-weight="700" font-family="Arial">alt</text><text x="426.669" y="595.249" fill="#000" font-size="33.75" textLength="1000.865" font-weight="700" font-family="Arial">[Сбой, низкое качество, PAD или нет надёжного кандидата]</text><polygon points="1506.136,673.843,1524.886,681.343,1506.136,688.843,1513.636,681.343" fill="#181818" style="stroke:#181818;stroke-width:1.875;stroke-linejoin:miter;stroke-miterlimit:10;"/><line x1="459.422" y1="681.343" x2="1517.386" y2="681.343" style="stroke:#181818;stroke-width:1.875;"/><text x="840.028" y="670.993" fill="#000" font-size="33.75" textLength="140.652" font-family="Arial">MANUAL</text><text x="980.68" y="670.993" fill="#000" font-size="33.75" font-family="Arial"> </text><text x="990.057" y="670.993" fill="#000" font-size="33.75" font-family="Arial">и</text><text x="1008.91" y="670.993" fill="#000" font-size="33.75" font-family="Arial"> </text><text x="1018.287" y="670.993" fill="#000" font-size="33.75" textLength="129.743" font-family="Arial">причина</text><line x1="274.783" y1="698.218" x2="1605.511" y2="698.218" style="stroke:#000;stroke-width:1.875;stroke-dasharray:3.75,3.75;"/><text x="284.158" y="734.177" fill="#000" font-size="33.75" textLength="790.027" font-weight="700" font-family="Arial">[Известный сотрудник без действующих прав]</text><polygon points="921.248,788.961,939.998,796.461,921.248,803.961,928.748,796.461" fill="#181818" style="stroke:#181818;stroke-width:1.875;stroke-linejoin:miter;stroke-miterlimit:10;"/><line x1="459.422" y1="796.461" x2="932.498" y2="796.461" style="stroke:#181818;stroke-width:1.875;"/><text x="503.741" y="786.111" fill="#000" font-size="33.75" textLength="93.768" font-family="Arial">DENY</text><text x="597.509" y="786.111" fill="#000" font-size="33.75" font-family="Arial"> </text><text x="606.886" y="786.111" fill="#000" font-size="33.75" font-family="Arial">/</text><text x="616.263" y="786.111" fill="#000" font-size="33.75" font-family="Arial"> </text><text x="625.639" y="786.111" fill="#000" font-size="33.75" textLength="273.79" font-family="Arial">RIGHTS_DENIED</text><line x1="274.783" y1="813.336" x2="1605.511" y2="813.336" style="stroke:#000;stroke-width:1.875;stroke-dasharray:3.75,3.75;"/><text x="284.158" y="849.295" fill="#000" font-size="33.75" textLength="584.132" font-weight="700" font-family="Arial">[Личность и права подтверждены]</text><polygon points="921.248,942.889,939.998,950.389,921.248,957.889,928.748,950.389" fill="#181818" style="stroke:#181818;stroke-width:1.875;stroke-linejoin:miter;stroke-miterlimit:10;"/><line x1="459.422" y1="950.389" x2="932.498" y2="950.389" style="stroke:#181818;stroke-width:1.875;"/><text x="550.789" y="901.23" fill="#000" font-size="33.75" textLength="144.97" font-family="Arial">Записать</text><text x="695.76" y="901.23" fill="#000" font-size="33.75" font-family="Arial"> </text><text x="705.136" y="901.23" fill="#000" font-size="33.75" textLength="118.158" font-family="Arial">ALLOW</text><text x="823.294" y="901.23" fill="#000" font-size="33.75" font-family="Arial"> </text><text x="832.671" y="901.23" fill="#000" font-size="33.75" font-family="Arial">+</text><text x="622.788" y="940.039" fill="#000" font-size="33.75" textLength="157.593" font-family="Arial">attempt_id</text><path d="M314.158,974.764 L314.158,1070.389 L1088.533,1070.389 L1088.533,993.514 L1069.783,974.764 L314.158,974.764" style="stroke:#181818;stroke-width:0.938;" fill="#FEFFDD"/><path d="M1069.783,974.764 L1069.783,993.514 L1088.533,993.514 L1069.783,974.764" style="stroke:#181818;stroke-width:0.938;" fill="#FEFFDD"/><text x="325.408" y="1016.348" fill="#000" font-size="33.75" textLength="704.993" font-family="Arial">Недоступен аудит → MANUAL без открытия.</text><text x="325.408" y="1055.157" fill="#000" font-size="33.75" textLength="735.48" font-family="Arial">В пилоте также нужно подтверждение охраны.</text><polygon points="1138.943,1161.876,1157.693,1169.376,1138.943,1176.876,1146.443,1169.376" fill="#181818" style="stroke:#181818;stroke-width:1.875;stroke-linejoin:miter;stroke-miterlimit:10;"/><line x1="459.422" y1="1169.376" x2="1150.193" y2="1169.376" style="stroke:#181818;stroke-width:1.875;"/><text x="653.762" y="1120.216" fill="#000" font-size="33.75" textLength="202.632" font-family="Arial">openOnce(id,</text><text x="856.394" y="1120.216" fill="#000" font-size="33.75" font-family="Arial"> </text><text x="865.771" y="1120.216" fill="#000" font-size="33.75" textLength="101.332" font-family="Arial">nonce,</text><text x="726.956" y="1159.026" fill="#000" font-size="33.75" textLength="166.954" font-family="Arial">expires_at)</text><path d="M393.797,1191.876 L517.558,1191.876 L517.558,1215.685 L498.808,1234.435 L393.797,1234.435 L393.797,1191.876" style="stroke:#000;stroke-width:2.813;" fill="#EEE"/><rect x="393.797" y="1191.876" width="1164.839" height="656.96" fill="none" style="stroke:#000;stroke-width:2.813;"/><text x="421.922" y="1225.96" fill="#000" font-size="33.75" textLength="39.386" font-weight="700" font-family="Arial">alt</text><text x="545.683" y="1227.835" fill="#000" font-size="33.75" textLength="480.591" font-weight="700" font-family="Arial">[Исполнение подтверждено]</text><polygon points="480.047,1306.428,461.297,1313.928,480.047,1321.428,472.547,1313.928" fill="#181818" style="stroke:#181818;stroke-width:1.875;stroke-linejoin:miter;stroke-miterlimit:10;"/><line x1="468.797" y1="1313.928" x2="1159.568" y2="1313.928" style="stroke:#181818;stroke-width:1.875;stroke-dasharray:3.75,3.75;"/><text x="775.735" y="1303.578" fill="#000" font-size="33.75" textLength="69.395" font-family="Arial">ACK</text><polygon points="921.248,1371.487,939.998,1378.987,921.248,1386.487,928.748,1378.987" fill="#181818" style="stroke:#181818;stroke-width:1.875;stroke-linejoin:miter;stroke-miterlimit:10;"/><line x1="459.422" y1="1378.987" x2="932.498" y2="1378.987" style="stroke:#181818;stroke-width:1.875;"/><text x="568.447" y="1368.637" fill="#000" font-size="33.75" textLength="266.276" font-family="Arial">COMMAND_ACK</text><path d="M429.422,1401.487 L566.267,1401.487 L566.267,1425.297 L547.517,1444.047 L429.422,1444.047 L429.422,1401.487" style="stroke:#000;stroke-width:2.813;" fill="#EEE"/><rect x="429.422" y="1401.487" width="1017.676" height="202.112" fill="none" style="stroke:#000;stroke-width:2.813;"/><text x="457.547" y="1435.572" fill="#000" font-size="33.75" textLength="52.471" font-weight="700" font-family="Arial">opt</text><text x="594.392" y="1437.447" fill="#000" font-size="33.75" textLength="822.706" font-weight="700" font-family="Arial">[Физический проход зарегистрирован датчиком]</text><polygon points="480.047,1516.04,461.297,1523.54,480.047,1531.04,472.547,1523.54" fill="#181818" style="stroke:#181818;stroke-width:1.875;stroke-linejoin:miter;stroke-miterlimit:10;"/><line x1="468.797" y1="1523.54" x2="1159.568" y2="1523.54" style="stroke:#181818;stroke-width:1.875;"/><text x="695.966" y="1513.19" fill="#000" font-size="33.75" textLength="228.933" font-family="Arial">passage_event</text><polygon points="921.248,1581.099,939.998,1588.599,921.248,1596.099,928.748,1588.599" fill="#181818" style="stroke:#181818;stroke-width:1.875;stroke-linejoin:miter;stroke-miterlimit:10;"/><line x1="459.422" y1="1588.599" x2="932.498" y2="1588.599" style="stroke:#181818;stroke-width:1.875;"/><text x="620.926" y="1578.249" fill="#000" font-size="33.75" textLength="161.318" font-family="Arial">PASSAGE</text><line x1="393.797" y1="1631.724" x2="1558.636" y2="1631.724" style="stroke:#000;stroke-width:1.875;stroke-dasharray:3.75,3.75;"/><text x="403.172" y="1667.683" fill="#000" font-size="33.75" textLength="361.412" font-weight="700" font-family="Arial">[Timeout или ошибка]</text><polygon points="921.248,1722.468,939.998,1729.968,921.248,1737.468,928.748,1729.968" fill="#181818" style="stroke:#181818;stroke-width:1.875;stroke-linejoin:miter;stroke-miterlimit:10;"/><line x1="459.422" y1="1729.968" x2="932.498" y2="1729.968" style="stroke:#181818;stroke-width:1.875;"/><text x="514.09" y="1719.618" fill="#000" font-size="33.75" textLength="374.991" font-family="Arial">COMMAND_UNKNOWN</text><polygon points="1506.136,1826.336,1524.886,1833.836,1506.136,1841.336,1513.636,1833.836" fill="#181818" style="stroke:#181818;stroke-width:1.875;stroke-linejoin:miter;stroke-miterlimit:10;"/><line x1="459.422" y1="1833.836" x2="1517.386" y2="1833.836" style="stroke:#181818;stroke-width:1.875;"/><text x="794.231" y="1784.677" fill="#000" font-size="33.75" textLength="150.804" font-family="Arial">Проверка</text><text x="945.035" y="1784.677" fill="#000" font-size="33.75" font-family="Arial"> </text><text x="954.412" y="1784.677" fill="#000" font-size="33.75" textLength="53.575" font-family="Arial">без</text><text x="1007.987" y="1784.677" fill="#000" font-size="33.75" font-family="Arial"> </text><text x="1017.364" y="1784.677" fill="#000" font-size="33.75" textLength="176.462" font-family="Arial">повторного</text><text x="921.725" y="1823.486" fill="#000" font-size="33.75" textLength="144.608" font-family="Arial">открытия</text><polygon points="921.248,1982.704,939.998,1990.204,921.248,1997.704,928.748,1990.204" fill="#181818" style="stroke:#181818;stroke-width:1.875;stroke-linejoin:miter;stroke-miterlimit:10;"/><line x1="459.422" y1="1990.204" x2="932.498" y2="1990.204" style="stroke:#181818;stroke-width:1.875;"/><text x="507.028" y="1941.045" fill="#000" font-size="33.75" textLength="168.091" font-family="Arial">Сохранить</text><text x="675.119" y="1941.045" fill="#000" font-size="33.75" font-family="Arial"> </text><text x="684.496" y="1941.045" fill="#000" font-size="33.75" textLength="131.819" font-family="Arial">события</text><text x="816.315" y="1941.045" fill="#000" font-size="33.75" font-family="Arial"> </text><text x="825.692" y="1941.045" fill="#000" font-size="33.75" textLength="70.45" font-family="Arial">всех</text><text x="637.702" y="1979.854" fill="#000" font-size="33.75" textLength="127.766" font-family="Arial">исходов</text><polygon points="1667.975,2086.573,1686.725,2094.073,1667.975,2101.573,1675.475,2094.073" fill="#181818" style="stroke:#181818;stroke-width:1.875;stroke-linejoin:miter;stroke-miterlimit:10;"/><line x1="459.422" y1="2094.073" x2="1679.225" y2="2094.073" style="stroke:#181818;stroke-width:1.875;"/><text x="936.776" y="2044.914" fill="#000" font-size="33.75" textLength="86.303" font-family="Arial">Batch</text><text x="1023.079" y="2044.914" fill="#000" font-size="33.75" font-family="Arial"> </text><text x="1032.456" y="2044.914" fill="#000" font-size="33.75" textLength="34.327" font-family="Arial">из</text><text x="1066.783" y="2044.914" fill="#000" font-size="33.75" font-family="Arial"> </text><text x="1076.159" y="2044.914" fill="#000" font-size="33.75" textLength="110.709" font-family="Arial">outbox,</text><text x="1186.869" y="2044.914" fill="#000" font-size="33.75" font-family="Arial"> </text><text x="1196.245" y="2044.914" fill="#000" font-size="33.75" font-family="Arial">с</text><text x="990.548" y="2083.723" fill="#000" font-size="33.75" textLength="168.799" font-family="Arial">повторами</text><polygon points="480.047,2151.632,461.297,2159.132,480.047,2166.632,472.547,2159.132" fill="#181818" style="stroke:#181818;stroke-width:1.875;stroke-linejoin:miter;stroke-miterlimit:10;"/><line x1="468.797" y1="2159.132" x2="1688.6" y2="2159.132" style="stroke:#181818;stroke-width:1.875;stroke-dasharray:3.75,3.75;"/><text x="874.599" y="2148.782" fill="#000" font-size="33.75" textLength="69.395" font-family="Arial">ACK</text><text x="943.994" y="2148.782" fill="#000" font-size="33.75" font-family="Arial"> </text><text x="953.371" y="2148.782" fill="#000" font-size="33.75" textLength="184.949" font-family="Arial">уникальных</text><text x="1138.32" y="2148.782" fill="#000" font-size="33.75" font-family="Arial"> </text><text x="1147.697" y="2148.782" fill="#000" font-size="33.75" textLength="127.601" font-family="Arial">event_id</text><path d="M381.337,2183.507 L381.337,2279.132 L1766.962,2279.132 L1766.962,2202.257 L1748.212,2183.507 L381.337,2183.507" style="stroke:#181818;stroke-width:0.938;" fill="#FEFFDD"/><path d="M1748.212,2183.507 L1748.212,2202.257 L1766.962,2202.257 L1748.212,2183.507" style="stroke:#181818;stroke-width:0.938;" fill="#FEFFDD"/><text x="535.681" y="2225.091" fill="#000" font-size="33.75" textLength="1061.658" font-family="Arial">При отказе диска восстановление доставки не открывает турникет.</text><text x="535.681" y="2263.9" fill="#000" font-size="33.75" textLength="1015.697" font-family="Arial">Старые права и отзывы не восстанавливаются откатом модели.</text><?plantuml-src TLNRQXjN57sVhzZagQMAcvG-b3mKbDXrJMmvs36XK317ccDvg3IZQevJqwVOnhqWaz8GQ6XeYsdfyrZLMEEBnhzmvXVo9Lrxp-WoIl9Wh7FsRUsrrpuJVkFv7TLLRN8x7jtzx8uJJc_qZjfhcIy2tzHKMrErwwdMk-sRtlSQqJF6S5UvmNUUtwGTrGhrh4L_kwVzXbxJOQYQkjhocZurj6zqTyQhhVOB1ydzoQTtd5tFrRGJ1AOUx3l6CorDMskhP6zicXtOAnlRWKrjtqRP8NvVPITsn1QS4dhpx2N1EC1L917s9kl1SYd7x1aSZyKUEQXll8RNKRwXM_Pt6zbh6yCZkaKgf8PgbpsMtAQcxfvllBOM3uqBnrL6rLMeaU4ryg9C3YZhsVXhd-i0YPmangs_LJQ5-P21eRCh1e2mKzp_RLzAI5CPxQY62Rfm_pCxPeJSNMxSKrrtBkM_84LIvdtaXACTklsvOAPxjB5ydpwYbOqAXXI6Nk1lUwuZjgaFCvBz241CRD-c5NfKNQoGRjUrwsBU4t-t3k-xzse4-dEAuSv4CkSO60xst2RPSMwDRDz1oEro9NGqi0dp1UIzoiJLHlWjwP0fiOcZMeR0pncgNC0qmkKGbL8R4nTy2p5GWTQ4FUFiaFz5Tf3z2aGGZVtFfX8sMnxI81et9mG3urgrjbLTdRIOe4x2kHmDqPDz1H3zeZ9F-u8RJta8sP68CR6N1D2n7HBEiRt8GMP7sVFivp8vq-B2xE9IxIlwc3PMbhzylBcDqyhIOb7rjU0en9-TJD09Rxdw1q85J-DSwWBSV07x6m9kaEf0o3-Xwkhg-XFeGncZsnt3sY3o0wCfUAgx4bo1a8di7_akIlaZv41-GX9kEG7PRtvuCI6kw3tbNGGhl9D9zii2Ptd1K7bAR8o99u2PdFD4HyWbatfFDmYBEMcn5LcF4shV5RYpOyGIeTMWe_rrF4aVU6u5BlW5GUztlAuEjvNv404YhrUWuaOMSZGjykxwAM8eJp-ZwEg3Xt9Vuld1-Xh8MDmU6uCEIlqZ-arosQBh1DAPVQS8rWZ7659DX6SMNxvZ4RETRmohaPVWMZAF0KtmT9IyiDlwALw3mgM4xL5rSxEwl9I3zddUeh37UEk2FJFPeJJx2J_FU6FUtzzMxM5j_Kcjv31U8_lNtFimrWMpsmUxAUudYpadbdoqZloL17mwLG3h3XBcxRDduq2y8BY8UScOm_m3W7gJDFaZYLJtbMdiShj3Gj_u_bIGgeoEFnE9KqIKPqvGgwpwz2k0ca8wBz7S2XKlir2I5CqYSCXY6yWw2a5zsQy3sOgHS7Sr5MMnVBBnbyKhDyERY8IVFTvFOPR1uMB1iQSS9avnwTKee0mvEkiL6SiW8W6Ho2VuEL8VCCK5VcR9NXD8IcL5uBVWZ3VoVm00?></g></svg>